HIERARCHY
ROOT hip
{
  OFFSET 0.00112043 5.09927 -9.65472
  CHANNELS 6 Xposition Yposition Zposition Zrotation Xrotation Yrotation
  JOINT abdomen
  {
    OFFSET 0 -1.186 -1.5018
    CHANNELS 3 Zrotation Xrotation Yrotation
    JOINT abdomen2
    {
      OFFSET 0 9.964 0.2134
      CHANNELS 3 Zrotation Xrotation Yrotation
      JOINT chest
      {
        OFFSET 0 13.134 -3.2573
        CHANNELS 3 Zrotation Xrotation Yrotation
        JOINT neck
        {
          OFFSET 0 20.686 -1.6905
          CHANNELS 3 Zrotation Xrotation Yrotation
          JOINT head
          {
            OFFSET 0 7.238 -0.1237
            CHANNELS 3 Zrotation Xrotation Yrotation
            End Site
            {
              OFFSET 0 0 0
            }
          }
        }
        JOINT lCollar
        {
          OFFSET 1.7069 20.075 5.0056
          CHANNELS 3 Zrotation Xrotation Yrotation
          JOINT lShldr
          {
            OFFSET 13.6458 -0.047 -4.849
            CHANNELS 3 Zrotation Xrotation Yrotation
            JOINT lForeArm
            {
              OFFSET 28.3255 -0.9759 2.2888
              CHANNELS 3 Zrotation Xrotation Yrotation
              JOINT lHand
              {
                OFFSET 22.1583 -0.53 10.8316
                CHANNELS 3 Zrotation Xrotation Yrotation
                JOINT lThumb1
                {
                  OFFSET 0.786 0.112 2.5817
                  CHANNELS 3 Zrotation Xrotation Yrotation
                  JOINT lThumb2
                  {
                    OFFSET 0.3601 -0.878 4.2331
                    CHANNELS 3 Zrotation Xrotation Yrotation
                    JOINT lThumb2_End
                    {
                      OFFSET 1.8127 -1.216 2.2227
                      CHANNELS 3 Zrotation Xrotation Yrotation
                      End Site
                      {
                        OFFSET 0.0181 -0.0122 0.0222
                      }
                    }
                  }
                }
                JOINT lCarpal1
                {
                  OFFSET 0.9571 1.114 1.7695
                  CHANNELS 3 Zrotation Xrotation Yrotation
                  JOINT lIndex1
                  {
                    OFFSET 4.1246 0.487 4.1451
                    CHANNELS 3 Zrotation Xrotation Yrotation
                    JOINT lIndex2
                    {
                      OFFSET 3.4052 -1.454 2.7682
                      CHANNELS 3 Zrotation Xrotation Yrotation
                      JOINT lIndex2_End
                      {
                        OFFSET 1.4531 -1.795 1.2713
                        CHANNELS 3 Zrotation Xrotation Yrotation
                        End Site
                        {
                          OFFSET 0.0145 -0.0179 0.0127
                        }
                      }
                    }
                  }
                  JOINT lMid1
                  {
                    OFFSET 5.6954 0.21 2.1184
                    CHANNELS 3 Zrotation Xrotation Yrotation
                    JOINT lMid2
                    {
                      OFFSET 3.9766 -1.54 2.3863
                      CHANNELS 3 Zrotation Xrotation Yrotation
                      JOINT lMid2_End
                      {
                        OFFSET 1.4042 -1.926 1.125
                        CHANNELS 3 Zrotation Xrotation Yrotation
                        End Site
                        {
                          OFFSET 0.014 -0.0193 0.0113
                        }
                      }
                    }
                  }
                }
                JOINT lCarpal2
                {
                  OFFSET 2.0956 0.66 -0.3894
                  CHANNELS 3 Zrotation Xrotation Yrotation
                  JOINT lRing1
                  {
                    OFFSET 5.0395 -0.09 2.4971
                    CHANNELS 3 Zrotation Xrotation Yrotation
                    JOINT lRing2
                    {
                      OFFSET 3.7921 -1.552 1.4806
                      CHANNELS 3 Zrotation Xrotation Yrotation
                      JOINT lRing2_End
                      {
                        OFFSET 1.4655 -1.808 0.9609
                        CHANNELS 3 Zrotation Xrotation Yrotation
                        End Site
                        {
                          OFFSET 0.0147 -0.0181 0.0096
                        }
                      }
                    }
                  }
                  JOINT lPinky1
                  {
                    OFFSET 4.9141 -1.269 0.3591
                    CHANNELS 3 Zrotation Xrotation Yrotation
                    JOINT lPinky2
                    {
                      OFFSET 3.1477 -1.685 0.8462
                      CHANNELS 3 Zrotation Xrotation Yrotation
                      JOINT lPinky2_End
                      {
                        OFFSET 0.8055 -1.585 0.7955
                        CHANNELS 3 Zrotation Xrotation Yrotation
                        End Site
                        {
                          OFFSET 0.0081 -0.0158 0.008
                        }
                      }
                    }
                  }
                }
              }
            }
          }
        }
        JOINT rCollar
        {
          OFFSET -1.7069 20.075 5.0056
          CHANNELS 3 Zrotation Xrotation Yrotation
          JOINT rShldr
          {
            OFFSET -13.6458 -0.047 -4.849
            CHANNELS 3 Zrotation Xrotation Yrotation
            JOINT rForeArm
            {
              OFFSET -28.3255 -0.9759 2.2888
              CHANNELS 3 Zrotation Xrotation Yrotation
              JOINT rHand
              {
                OFFSET -22.1583 -0.53 10.8316
                CHANNELS 3 Zrotation Xrotation Yrotation
                JOINT rThumb1
                {
                  OFFSET -0.786 0.112 2.5817
                  CHANNELS 3 Zrotation Xrotation Yrotation
                  JOINT rThumb2
                  {
                    OFFSET -0.3601 -0.878 4.2331
                    CHANNELS 3 Zrotation Xrotation Yrotation
                    JOINT rThumb2_End
                    {
                      OFFSET -1.8127 -1.216 2.2227
                      CHANNELS 3 Zrotation Xrotation Yrotation
                      End Site
                      {
                        OFFSET -0.0181 -0.0122 0.0222
                      }
                    }
                  }
                }
                JOINT rCarpal1
                {
                  OFFSET -0.9571 1.114 1.7695
                  CHANNELS 3 Zrotation Xrotation Yrotation
                  JOINT rIndex1
                  {
                    OFFSET -4.1246 0.487 4.1451
                    CHANNELS 3 Zrotation Xrotation Yrotation
                    JOINT rIndex2
                    {
                      OFFSET -3.4052 -1.454 2.7682
                      CHANNELS 3 Zrotation Xrotation Yrotation
                      JOINT rIndex2_End
                      {
                        OFFSET -1.4531 -1.795 1.2713
                        CHANNELS 3 Zrotation Xrotation Yrotation
                        End Site
                        {
                          OFFSET -0.0145 -0.018 0.0127
                        }
                      }
                    }
                  }
                  JOINT rMid1
                  {
                    OFFSET -5.6954 0.21 2.1184
                    CHANNELS 3 Zrotation Xrotation Yrotation
                    JOINT rMid2
                    {
                      OFFSET -3.9766 -1.54 2.3863
                      CHANNELS 3 Zrotation Xrotation Yrotation
                      JOINT rMid2_End
                      {
                        OFFSET -1.4042 -1.926 1.125
                        CHANNELS 3 Zrotation Xrotation Yrotation
                        End Site
                        {
                          OFFSET -0.014 -0.0193 0.0113
                        }
                      }
                    }
                  }
                }
                JOINT rCarpal2
                {
                  OFFSET -2.0956 0.66 -0.3894
                  CHANNELS 3 Zrotation Xrotation Yrotation
                  JOINT rRing1
                  {
                    OFFSET -5.0395 -0.09 2.4971
                    CHANNELS 3 Zrotation Xrotation Yrotation
                    JOINT rRing2
                    {
                      OFFSET -3.7921 -1.552 1.4806
                      CHANNELS 3 Zrotation Xrotation Yrotation
                      JOINT rRing2_End
                      {
                        OFFSET -1.4655 -1.808 0.9609
                        CHANNELS 3 Zrotation Xrotation Yrotation
                        End Site
                        {
                          OFFSET -0.0147 -0.0181 0.0096
                        }
                      }
                    }
                  }
                  JOINT rPinky1
                  {
                    OFFSET -4.9141 -1.269 0.3592
                    CHANNELS 3 Zrotation Xrotation Yrotation
                    JOINT rPinky2
                    {
                      OFFSET -3.1477 -1.685 0.8462
                      CHANNELS 3 Zrotation Xrotation Yrotation
                      JOINT rPinky2_End
                      {
                        OFFSET -0.8055 -1.585 0.7955
                        CHANNELS 3 Zrotation Xrotation Yrotation
                        End Site
                        {
                          OFFSET -0.0081 -0.0158 0.008
                        }
                      }
                    }
                  }
                }
              }
            }
          }
        }
      }
    }
  }
  JOINT lThigh
  {
    OFFSET 8.367 -8.2066 0.5982
    CHANNELS 3 Zrotation Xrotation Yrotation
    JOINT lShin
    {
      OFFSET 2.1923 -43.463 -0.4932
      CHANNELS 3 Zrotation Xrotation Yrotation
      JOINT lFoot
      {
        OFFSET 0.7333 -45.8593 -2.6451
        CHANNELS 3 Zrotation Xrotation Yrotation
        End Site
        {
          OFFSET 2.6618 -4.2699 12.3931
        }
      }
    }
  }
  JOINT rThigh
  {
    OFFSET -8.367 -8.2066 0.5982
    CHANNELS 3 Zrotation Xrotation Yrotation
    JOINT rShin
    {
      OFFSET -2.1923 -43.463 -0.4931
      CHANNELS 3 Zrotation Xrotation Yrotation
      JOINT rFoot
      {
        OFFSET -0.7333 -45.8593 -2.6451
        CHANNELS 3 Zrotation Xrotation Yrotation
        End Site
        {
          OFFSET -2.6618 -4.2699 12.3931
        }
      }
    }
  }
}
MOTION
Frames:	4
Frame Time:	0.0333333
0 91.7903 2.51682 0 0 -0 0 0 -0 0 0 -0 0 0 -0 0 0 -0 0 0 -0 0 0 -0 1.66051 0.0835086 5.75766 -0.0175111 0.895433 15.7816 7.95139e-016 -1.98785e-016 -0 5.46658e-016 -3.97569e-016 -0 5.96354e-016 0 -0 3.97569e-016 1.98785e-016 9.54166e-015 1.49089e-016 -3.97569e-016 -0 6.4605e-016 0 3.18055e-015 5.96354e-016 0 3.18055e-015 8.94531e-016 -1.98785e-016 6.36111e-015 6.4605e-016 0 3.18055e-015 5.96354e-016 0 3.18055e-015 8.94531e-016 -1.98785e-016 6.36111e-015 1.49089e-016 -3.97569e-016 -0 6.4605e-016 0 3.18055e-015 5.96354e-016 0 3.18055e-015 8.94531e-016 -1.98785e-016 6.36111e-015 6.4605e-016 0 3.18055e-015 5.96354e-016 0 3.18055e-015 8.94531e-016 -1.98785e-016 6.36111e-015 0 0 -0 -1.4496 0.0636048 -5.0245 -1.74811 1.20616 -16.8394 -1.19271e-015 1.98785e-016 -3.18055e-015 -3.97569e-016 1.98785e-016 -3.18055e-015 -2.98177e-016 1.98785e-016 -3.18055e-015 -2.98177e-016 3.97569e-016 -0 4.96962e-016 0 -6.36111e-015 -9.93923e-017 3.97569e-016 -0 -8.94531e-016 5.96354e-016 -0 -3.97569e-016 3.97569e-016 -0 -9.93923e-017 3.97569e-016 -0 -8.94531e-016 5.96354e-016 -0 -3.97569e-016 3.97569e-016 -0 4.96962e-016 0 -6.36111e-015 -9.93923e-017 3.97569e-016 -0 -8.94531e-016 5.96354e-016 -0 -3.97569e-016 3.97569e-016 -0 -9.93923e-017 3.97569e-016 -0 -8.94531e-016 5.96354e-016 -0 -3.97569e-016 3.97569e-016 -0 -4.66111 -0.998717 0.12318 0.00986924 1.54847 0.176523 4.65186 -0.572283 -0.254274 4.66111 -0.998765 -0.123176 -0.00986867 1.54869 -0.176537 -4.65186 -0.572453 0.25427 
0.0013809 76.8248 62.6307 -180 70.0004 -180 -0.224424 12.9015 -0.275491 -0.399084 25.8039 -0.518108 -0.399085 25.8039 -0.518108 1.21394e-007 -0.400434 -4.80064e-006 -6.48534e-008 -0.35496 -3.35131e-007 42.84 -7.13333 -4.15449 30.4378 -58.4866 -14.6796 12.4938 -2.52454 12.775 -3.63809 0.837601 -0.0471936 -1.59028e-015 0 -3.57812e-015 9.80745e-007 -5.99594e-006 2.12967e-006 -2.36413e-006 -1.70234e-006 -2.35373e-006 -1.59028e-015 3.18055e-015 -1.98785e-015 1.59028e-015 -3.18055e-015 -3.57812e-015 9.80745e-007 -5.99594e-006 2.12967e-006 -2.36413e-006 -1.70235e-006 -2.35373e-006 1.59028e-015 -3.18055e-015 -3.57812e-015 9.80745e-007 -5.99594e-006 2.12967e-006 -2.36413e-006 -1.70235e-006 -2.35373e-006 -1.59028e-015 3.18055e-015 -1.98785e-015 1.59028e-015 -3.18055e-015 -3.57812e-015 9.80745e-007 -5.99594e-006 2.12967e-006 -2.36413e-006 -1.70235e-006 -2.35373e-006 1.59028e-015 -3.18055e-015 -3.57812e-015 9.80745e-007 -5.99594e-006 2.12967e-006 -2.36413e-006 -1.70235e-006 -2.35373e-006 -43.1798 -7.06741 4.16411 -30.1104 -58.4715 15.688 -14.3157 -2.1103 -13.9127 3.78774 0.686735 -0.277196 6.36111e-015 -6.36111e-015 7.95139e-016 -3.6922e-006 -2.02086e-006 -5.87608e-006 1.72391e-006 -1.94626e-006 1.98356e-006 6.36111e-015 -6.36111e-015 1.59028e-015 3.18055e-015 -6.36111e-015 7.95139e-016 -3.6922e-006 -2.02086e-006 -5.87608e-006 1.72391e-006 -1.94626e-006 1.98356e-006 3.18055e-015 -6.36111e-015 7.95139e-016 -3.6922e-006 -2.02086e-006 -5.87608e-006 1.72391e-006 -1.94626e-006 1.98356e-006 6.36111e-015 -6.36111e-015 1.59028e-015 3.18055e-015 -6.36111e-015 7.95139e-016 -3.6922e-006 -2.02086e-006 -5.87608e-006 1.72391e-006 -1.94626e-006 1.98356e-006 3.18055e-015 -6.36111e-015 7.95139e-016 -3.6922e-006 -2.02086e-006 -5.87608e-006 1.72391e-006 -1.94626e-006 1.98356e-006 176.39 -69.4735 173.15 -3.84561 -0.479425 2.27282 7.26131 42.1588 3.49319 -176.135 -69.5376 -172.921 3.95374 -0.611997 -2.33426 -7.40238 42.1925 -3.41098 
0.0013809 76.8248 62.5029 -180 70.0004 -180 -0.225418 12.8129 -0.273398 -0.401956 25.6267 -0.513626 -0.401956 25.6267 -0.513626 9.22918e-006 -0.792297 2.64036e-006 -3.5588e-008 -0.70319 2.65588e-007 42.6675 -6.9552 -4.37103 30.4377 -58.4866 -14.6796 12.4938 -2.52454 12.775 -3.79527 0.933035 -0.0453439 1.15521e-006 2.03747e-006 1.63172e-006 -6.53338e-007 -1.93645e-005 3.25343e-006 3.18055e-015 6.36111e-015 1.59028e-015 -1.76556e-031 -3.18055e-015 -3.18055e-015 1.15521e-006 2.03747e-006 1.63172e-006 -6.53338e-007 -1.93645e-005 3.25343e-006 4.77083e-015 0 2.78299e-015 1.15521e-006 2.03747e-006 1.63172e-006 -6.53338e-007 -1.93645e-005 3.25343e-006 4.77083e-015 0 2.78299e-015 -1.76556e-031 -3.18055e-015 -3.18055e-015 1.15521e-006 2.03747e-006 1.63172e-006 -6.53338e-007 -1.93645e-005 3.25343e-006 4.77083e-015 0 2.78299e-015 1.15521e-006 2.03747e-006 1.63172e-006 -6.53338e-007 -1.93645e-005 3.25343e-006 4.77083e-015 0 2.78299e-015 -42.9897 -6.89226 4.37926 -30.1104 -58.4715 15.688 -14.3157 -2.11031 -13.9127 3.93884 0.791998 -0.257559 1.40173e-006 -2.44685e-006 1.57828e-006 -1.63745e-006 -3.47003e-006 -3.47701e-006 0 0 -3.97569e-015 3.18055e-015 3.18055e-015 -7.95139e-016 1.40173e-006 -2.44685e-006 1.57828e-006 -1.63745e-006 -3.47003e-006 -3.47701e-006 -8.82781e-032 -3.18055e-015 -1.59028e-015 1.40173e-006 -2.44685e-006 1.57828e-006 -1.63745e-006 -3.47003e-006 -3.47701e-006 -8.82781e-032 -3.18055e-015 -1.59028e-015 3.18055e-015 3.18055e-015 -7.95139e-016 1.40173e-006 -2.44685e-006 1.57828e-006 -1.63745e-006 -3.47003e-006 -3.47701e-006 -8.82781e-032 -3.18055e-015 -1.59028e-015 1.40173e-006 -2.44685e-006 1.57828e-006 -1.63745e-006 -3.47003e-006 -3.47701e-006 -8.82781e-032 -3.18055e-015 -1.59028e-015 176.39 -69.4735 173.15 -3.84561 -0.479425 2.27282 7.26131 42.1588 3.49319 -176.135 -69.5376 -172.921 3.95374 -0.611997 -2.33426 -7.40238 42.1925 -3.41098 
0.0013809 76.8248 62.3751 -180 70.0004 -180 -0.226361 12.7242 -0.270981 -0.404788 25.4493 -0.508495 -0.404788 25.4492 -0.508495 8.07991e-008 -1.1846 -1.05081e-006 9.022e-008 -1.0517 8.7914e-007 42.4958 -6.77641 -4.58698 30.4378 -58.4866 -14.6796 12.4938 -2.52454 12.775 -3.95249 1.02849 -0.0432316 3.18055e-015 -1.27222e-014 -3.97569e-016 3.18055e-015 -1.27222e-014 -1.98785e-015 -3.97252e-031 -9.54166e-015 -2.38542e-015 3.18055e-015 -3.18055e-015 1.19271e-015 -4.77083e-015 -6.36111e-015 9.14409e-015 1.59028e-015 -1.59028e-014 1.98785e-015 -1.59028e-015 -9.54166e-015 -3.97569e-016 -4.77083e-015 -6.36111e-015 9.14409e-015 1.59028e-015 -1.59028e-014 1.98785e-015 -1.59028e-015 -9.54166e-015 -3.97569e-016 3.18055e-015 -3.18055e-015 1.19271e-015 -4.77083e-015 -6.36111e-015 9.14409e-015 1.59028e-015 -1.59028e-014 1.98785e-015 -1.59028e-015 -9.54166e-015 -3.97569e-016 -4.77083e-015 -6.36111e-015 9.14409e-015 1.59028e-015 -1.59028e-014 1.98785e-015 -1.59028e-015 -9.54166e-015 -3.97569e-016 -42.8003 -6.71639 4.59378 -30.1105 -58.4715 15.6879 -14.3157 -2.11029 -13.9127 4.08993 0.897312 -0.238199 -1.59028e-015 0 -4.77083e-015 1.59028e-015 0 7.95139e-016 -3.18055e-015 0 -7.95139e-016 0 0 -4.77083e-015 -1.59028e-015 -3.18055e-015 1.82882e-014 -4.77083e-015 0 1.59028e-015 -4.41391e-032 -3.18055e-015 -7.95139e-016 -1.59028e-015 -3.18055e-015 1.82882e-014 -4.77083e-015 0 1.59028e-015 -4.41391e-032 -3.18055e-015 -7.95139e-016 0 0 -4.77083e-015 -1.59028e-015 -3.18055e-015 1.82882e-014 -4.77083e-015 0 1.59028e-015 -4.41391e-032 -3.18055e-015 -7.95139e-016 -1.59028e-015 -3.18055e-015 1.82882e-014 -4.77083e-015 0 1.59028e-015 -4.41391e-032 -3.18055e-015 -7.95139e-016 176.39 -69.4735 173.15 -3.84562 -0.479425 2.27282 7.2613 42.1588 3.49319 -176.135 -69.5376 -172.921 3.95374 -0.611997 -2.33426 -7.40238 42.1925 -3.41098 
